<svg width="120" height="119" viewBox="0 0 120 119" fill="none" xmlns="http://www.w3.org/2000/svg">
<g id="icon">
<g clip-path="url(#clip0)">
<path id="Vector" d="M7 -1L16.6471 107.006L59.934 119L103.343 106.988L113 -1H7ZM92.957 23.7022L89.6942 60.2057L87.4343 85.392L87.2365 87.6292L60.0187 95.1629L32.8384 87.6292L30.9787 66.8278H44.2981L45.2445 77.393L60.0375 81.3736L60.0752 81.3642H60.0846L74.84 77.3882L76.3889 60.2104H45.414L45.1503 57.2354L44.5429 50.5194L44.2275 46.9663H77.566L78.7807 33.4027H27.9984L27.7348 30.423L27.1275 23.7069L26.812 20.1538H93.2818L92.9617 23.7069L92.957 23.7022Z" fill="black"/>
</g>
</g>
<defs>
<clipPath id="clip0">
<rect width="120" height="119" fill="white"/>
</clipPath>
</defs>
</svg>
