<svg width="120" height="120" viewBox="0 0 120 120" fill="none" xmlns="http://www.w3.org/2000/svg">
<g id="icon">
<path id="Vector" d="M17.7832 13.1946L25.467 99.3733L59.9445 108.943L94.5195 99.3583L102.211 13.1946H17.7832V13.1946ZM86.247 32.9046L83.6482 62.0308L81.8482 82.1271L81.6907 83.9121L60.012 89.9233L38.3632 83.9121L36.882 67.3146H47.4907L48.2445 75.7446L60.027 78.9208L60.057 78.9133H60.0645L71.817 75.7408L73.0507 62.0346H48.3795L48.1695 59.6608L47.6857 54.3021L47.4345 51.4671H73.9882L74.9557 40.6446H34.5082L34.2982 38.2671L33.8145 32.9083L33.5632 30.0733H86.5057L86.2507 32.9083L86.247 32.9046Z" fill="black"/>
</g>
</svg>
