<svg width="120" height="120" viewBox="0 0 120 120" fill="none" xmlns="http://www.w3.org/2000/svg">
<g id="icon">
<path id="Vector" d="M79.9233 40.0078C85.2287 40.0078 90.3168 37.9003 94.0682 34.1488C97.8197 30.3973 99.9272 25.3093 99.9272 20.0039C99.9272 14.6985 97.8197 9.61047 94.0682 5.85901C90.3168 2.10755 85.2287 0 79.9233 0L39.9155 0C34.6133 0 29.5282 2.10631 25.7789 5.85558C22.0297 9.60484 19.9233 14.6899 19.9233 19.9922C19.9233 25.2944 22.0297 30.3795 25.7789 34.1288C29.5282 37.8781 34.6133 39.9844 39.9155 39.9844C34.6102 39.9844 29.5221 42.0919 25.7706 45.8434C22.0192 49.5948 19.9116 54.6829 19.9116 59.9883C19.9116 65.2936 22.0192 70.3817 25.7706 74.1332C29.5221 77.8846 34.6102 79.9922 39.9155 79.9922C35.9591 79.9899 32.0909 81.1608 28.8 83.3569C25.5091 85.5531 22.9433 88.6758 21.4271 92.3301C19.9109 95.9845 19.5124 100.006 20.282 103.887C21.0516 107.768 22.9547 111.333 25.7506 114.133C28.5466 116.932 32.1098 118.839 35.9898 119.613C39.8697 120.387 43.892 119.994 47.5481 118.482C51.2043 116.97 54.33 114.408 56.5299 111.119C58.7299 107.831 59.9054 103.964 59.9077 100.008V40.0078H79.9233ZM79.9233 40.0078C75.9693 40.0078 72.104 41.1803 68.8163 43.3771C65.5286 45.5739 62.9661 48.6962 61.453 52.3493C59.9398 56.0024 59.5439 60.0222 60.3153 63.9003C61.0867 67.7784 62.9908 71.3407 65.7867 74.1366C68.5827 76.9326 72.145 78.8366 76.0231 79.608C79.9012 80.3794 83.9209 79.9835 87.574 78.4704C91.2271 76.9572 94.3495 74.3948 96.5462 71.1071C98.743 67.8194 99.9155 63.9541 99.9155 60C99.9149 54.6979 97.8084 49.6132 94.0593 45.8641C90.3101 42.1149 85.2254 40.0084 79.9233 40.0078Z" fill="black"/>
</g>
</svg>
