<svg width="120" height="120" viewBox="0 0 120 120" fill="none" xmlns="http://www.w3.org/2000/svg">
<path id="icon" d="M60 120C26.8629 120 0 93.1371 0 60C0 26.8629 26.8629 0 60 0C93.1371 0 120 26.8629 120 60C120 93.1371 93.1371 120 60 120ZM110 60.4606H77.7419V69.6323H99.8589C96.6331 83.3939 86.4919 94.8596 73.131 99.4495L20.1351 46.699C25.6653 30.6434 41.3327 19.1757 59.3085 19.1757C73.1331 19.1757 85.5786 26.0596 93.4093 36.6081L100.325 30.6474C91.1028 18.2546 76.3589 10 59.3085 10C35.3448 10 15.0685 26.9727 10 49.4505L70.8266 110C92.9435 104.495 110 84.3111 110 60.4566V60.4606ZM10 60C10 72.9639 15.0924 85.4618 24.8153 95.1847C34.5382 104.908 47.502 110 60 110L10 60Z" fill="black"/>
</svg>
