<svg width="117" height="44" viewBox="0 0 117 44" fill="none" xmlns="http://www.w3.org/2000/svg">
<g clip-path="url(#clip0)">
<path d="M8.82911 13.309C8.60126 13.309 8.5443 13.1943 8.65822 13.0222L9.85442 11.4733C9.96835 11.3012 10.2532 11.1865 10.481 11.1865H30.8164C31.0443 11.1865 31.1013 11.3586 30.9873 11.5307L30.019 13.0222C29.9051 13.1943 29.6202 13.3664 29.4494 13.3664L8.82911 13.309Z" fill="white"/>
<path d="M0.227848 18.5867C0 18.5867 -0.056962 18.472 0.056962 18.2999L1.25316 16.751C1.36709 16.5789 1.6519 16.4642 1.87975 16.4642H27.8544C28.0823 16.4642 28.1962 16.6363 28.1392 16.8084L27.6835 18.1852C27.6266 18.4146 27.3987 18.5294 27.1709 18.5294L0.227848 18.5867Z" fill="white"/>
<path d="M14.0126 23.8644C13.7848 23.8644 13.7278 23.6923 13.8418 23.5202L14.6392 22.086C14.7531 21.914 14.981 21.7419 15.2088 21.7419H26.6012C26.8291 21.7419 26.943 21.9139 26.943 22.1434L26.8291 23.5202C26.8291 23.7497 26.6012 23.9218 26.4304 23.9218L14.0126 23.8644Z" fill="white"/>
<path d="M73.1392 12.2764C69.5506 13.1943 67.1013 13.8827 63.5696 14.8005C62.7152 15.03 62.6582 15.0874 61.9177 14.2269C61.0633 13.2516 60.4367 12.6206 59.2405 12.0469C55.6519 10.2686 52.1772 10.7849 48.9304 12.9074C45.057 15.4316 43.0633 19.1604 43.1202 23.8071C43.1772 28.3964 46.3101 32.1825 50.8101 32.8136C54.6835 33.3299 57.9304 31.9531 60.4937 29.0274C61.0063 28.3964 61.462 27.708 62.0316 26.9048C59.981 26.9048 57.4177 26.9048 51.038 26.9048C49.8418 26.9048 49.557 26.1591 49.9557 25.1838C50.6962 23.4055 52.0633 20.4224 52.8608 18.9309C53.0316 18.5867 53.4304 18.013 54.2848 18.013C57.1899 18.013 67.8987 18.013 75.019 18.013C74.9051 19.5619 74.9051 21.1108 74.6772 22.6597C74.0506 26.7901 72.5127 30.5763 70.0063 33.9035C65.9051 39.3533 60.5506 42.7379 53.7721 43.6558C48.1899 44.4016 43.0063 43.3116 38.4494 39.8696C34.2342 36.6571 31.8418 32.412 31.2152 27.1343C30.4747 20.8814 32.2975 15.2595 36.057 10.326C40.1013 4.99088 45.4557 1.60627 52.0063 0.401573C57.3608 -0.573655 62.4873 0.0573744 67.1013 3.21252C70.1202 5.22035 72.2848 7.97393 73.7089 11.3012C74.0506 11.8175 73.8228 12.1043 73.1392 12.2764Z" fill="white"/>
<path d="M91.9937 44C86.8101 43.8853 82.0823 42.3937 78.095 38.9518C74.7342 36.0261 72.6266 32.2973 71.9431 27.88C70.9177 21.3976 72.6836 15.661 76.557 10.5554C80.7152 5.04823 85.7279 2.17992 92.5063 0.975222C98.3165 -0.0573723 103.785 0.516291 108.741 3.90091C113.241 6.99869 116.032 11.1864 116.772 16.6936C117.741 24.4381 115.519 30.7484 110.222 36.1408C106.462 39.9843 101.848 42.3937 96.5506 43.4837C95.0127 43.7705 93.4747 43.8279 91.9937 44ZM105.551 20.824C105.494 20.0782 105.494 19.5046 105.38 18.9309C104.354 13.2516 99.1709 10.0391 93.7595 11.3012C88.462 12.5059 85.0443 15.8905 83.7912 21.2829C82.7658 25.7575 84.9304 30.2894 89.0317 32.1252C92.1646 33.502 95.2975 33.3299 98.3165 31.781C102.816 29.4289 105.266 25.7575 105.551 20.824Z" fill="white"/>
</g>
<defs>
<clipPath id="clip0">
<rect width="117" height="44" fill="white"/>
</clipPath>
</defs>
</svg>
