<svg width="120" height="119" viewBox="0 0 120 119" fill="none" xmlns="http://www.w3.org/2000/svg">
<path d="M12.2665 88.0669L16.6297 90.5861L65.2371 6.39803L60.8739 3.87888L12.2665 88.0669Z" fill="white"/>
<path d="M108.482 81.3412H11.2674V86.3795H108.482V81.3412Z" fill="white"/>
<path d="M13.191 84.1716L61.8167 112.246L64.3358 107.883L15.7102 79.8084L13.191 84.1716Z" fill="white"/>
<path d="M55.4321 11.0012L104.058 39.0761L106.577 34.7129L57.9512 6.63808L55.4321 11.0012Z" fill="white"/>
<path d="M13.2045 34.6939L15.7237 39.057L64.3493 10.9822L61.8301 6.61904L13.2045 34.6939Z" fill="white"/>
<path d="M54.5537 6.39895L103.161 90.587L107.524 88.0678L58.9169 3.8798L54.5537 6.39895Z" fill="white"/>
<path d="M20.1603 31.3528H15.122V87.5025H20.1603V31.3528Z" fill="white"/>
<path d="M104.658 31.3528H99.6197V87.5025H104.658V31.3528Z" fill="white"/>
<path d="M58.7584 106.303L60.9589 110.114L103.25 85.6963L101.05 81.8851L58.7584 106.303Z" fill="white"/>
<path d="M111.335 89.1414C108.421 94.2101 101.926 95.9401 96.8577 93.0264C91.789 90.1127 90.059 83.6175 92.9727 78.5489C95.8864 73.4802 102.382 71.7502 107.45 74.6639C112.549 77.608 114.279 84.0728 111.335 89.1414Z" fill="white"/>
<path d="M26.7768 40.3063C23.8631 45.375 17.368 47.105 12.2993 44.1913C7.23069 41.2776 5.50067 34.7824 8.41439 29.7138C11.3281 24.6451 17.8232 22.9151 22.8919 25.8288C27.9605 28.7729 29.6906 35.2377 26.7768 40.3063Z" fill="white"/>
<path d="M8.44472 89.1414C5.53101 84.0728 7.26102 77.608 12.3297 74.6639C17.3983 71.7502 23.8631 73.4802 26.8072 78.5489C29.7209 83.6175 27.9909 90.0823 22.9222 93.0264C17.8232 95.9401 11.3584 94.2101 8.44472 89.1414Z" fill="white"/>
<path d="M93.0031 40.3063C90.0894 35.2377 91.8194 28.7729 96.8881 25.8288C101.957 22.9151 108.422 24.6451 111.366 29.7138C114.279 34.7824 112.549 41.2472 107.481 44.1913C102.412 47.105 95.9168 45.375 93.0031 40.3063Z" fill="white"/>
<path d="M59.89 118.855C54.0322 118.855 49.2974 114.12 49.2974 108.263C49.2974 102.405 54.0322 97.6701 59.89 97.6701C65.7478 97.6701 70.4825 102.405 70.4825 108.263C70.4825 114.09 65.7478 118.855 59.89 118.855Z" fill="white"/>
<path d="M59.89 21.1851C54.0322 21.1851 49.2974 16.4503 49.2974 10.5926C49.2974 4.73478 54.0322 0 59.89 0C65.7478 0 70.4825 4.73478 70.4825 10.5926C70.4825 16.4503 65.7478 21.1851 59.89 21.1851Z" fill="white"/>
</svg>
