<svg width="86" height="98" viewBox="0 0 86 98" fill="none" xmlns="http://www.w3.org/2000/svg">
<path id="icon" d="M0.0141602 0.25L7.74854 87.7422L42.9985 97.75L78.1079 87.7422L85.9946 0.25H0.0141602ZM69.7407 21.0039L69.1782 26.5352L68.979 28.8203H27.7993L28.7603 39.8594H68.0298L67.6431 42.707L65.1587 71.0898L64.9595 72.9883L43.0454 79.0352V79.0703H42.9048L42.8696 79.082V79.0703H42.8579L20.7563 72.9766L19.4204 56.0312H30.0962L30.8579 64.6094L42.8579 67.8555H42.9048L54.8579 64.6211L56.1938 50.7227H42.8696V50.7109H18.8579L16.186 21.0039L15.9868 18.1563H69.9282L69.7407 21.0039V21.0039Z" fill="black"/>
</svg>
