<svg width="120" height="120" viewBox="0 0 120 120" fill="none" xmlns="http://www.w3.org/2000/svg">
<path d="M0 0V120H120V0H0ZM69.7207 56.9375C79.8882 56.9375 85.2472 63.1699 85.4297 71.2949H78.1855C78.1255 67.0174 75.2627 63.5977 69.7227 63.5977C64.6702 63.5977 61.5664 65.7359 61.5664 69.5859C61.5664 79.1159 85.9199 71.7242 85.9199 89.0742C85.9199 96.9542 79.1 102.086 68.75 102.086C57.2425 102.086 52.7972 94.7555 52.5547 87.668H59.8633C60.1683 92.313 63.2722 95.4277 69.1172 95.4277C75.0172 95.4277 78.4277 93.2889 78.4277 89.3789C78.4277 78.8114 54.2559 87.1176 54.2559 69.7676C54.2559 62.8651 60.1007 56.9375 69.7207 56.9375V56.9375ZM93.0156 92.8301H102.273V102.088H93.0156V92.8301Z" fill="black"/>
</svg>
