<svg width="88" height="119" viewBox="0 0 88 119" fill="none" xmlns="http://www.w3.org/2000/svg">
<path d="M28.3425 92.0307C28.3425 92.0307 23.7849 94.6735 31.5868 95.5715C41.0407 96.6453 45.8768 96.4926 56.2963 94.5254C56.2963 94.5254 59.0346 96.238 62.8636 97.7238C39.5046 107.708 10.0007 97.1452 28.3472 92.0307H28.3425ZM25.4883 79.0011C25.4883 79.0011 20.3737 82.778 28.1847 83.5834C38.2839 84.6202 46.2621 84.7082 60.0649 82.0559C60.0649 82.0559 61.9725 83.9861 64.9753 85.0415C36.7339 93.2757 5.27597 85.6895 25.4883 79.0011ZM49.5528 56.8995C55.3078 63.5092 48.0396 69.4569 48.0396 69.4569C48.0396 69.4569 62.6547 61.9354 55.9436 52.5116C49.6733 43.7265 44.8698 39.3617 70.8927 24.3094C70.8927 24.3094 30.0459 34.4831 49.5528 56.9041V56.8995ZM80.4443 101.667C80.4443 101.667 83.8184 104.44 76.7267 106.583C63.2441 110.657 20.6104 111.887 8.76613 106.745C4.51024 104.898 12.493 102.334 15.0038 101.797C17.6215 101.232 19.1206 101.334 19.1206 101.334C14.3866 98.0061 -11.4832 107.865 5.98143 110.689C53.609 118.391 92.7991 107.222 80.4443 101.663V101.667ZM30.5332 65.504C30.5332 65.504 8.84509 70.6418 22.8521 72.5072C28.7649 73.2986 40.5535 73.1182 51.5391 72.2017C60.5151 71.4472 69.5282 69.8411 69.5282 69.8411C69.5282 69.8411 66.3629 71.1927 64.0749 72.7524C42.0526 78.5289 -0.488346 75.8398 11.7597 69.9337C22.1188 64.9394 30.5379 65.5087 30.5379 65.5087L30.5332 65.504ZM69.4401 87.1891C91.829 75.5898 81.4745 64.4395 74.2529 65.9391C72.48 66.3048 71.691 66.6242 71.691 66.6242C71.691 66.6242 72.35 65.5966 73.6031 65.1523C87.8933 60.1395 98.8878 79.9315 68.9898 87.7723C68.9898 87.7723 69.338 87.4622 69.4401 87.1891ZM55.9389 0C55.9389 0 68.3355 12.3676 44.1782 31.3866C24.806 46.6425 39.7598 55.3443 44.1689 65.2819C32.863 55.1082 24.5646 46.1519 30.1294 37.8157C38.3025 25.5777 60.9375 19.6485 55.9343 0H55.9389ZM32.7331 118.626C54.2216 119.996 87.2203 117.867 88 107.726C88 107.726 86.4963 111.572 70.2429 114.622C51.9011 118.066 29.28 117.664 15.8671 115.455C15.8671 115.455 18.6147 117.724 32.7378 118.626H32.7331Z" fill="black"/>
</svg>
