<svg width="120" height="120" viewBox="0 0 120 120" fill="none" xmlns="http://www.w3.org/2000/svg">
<g id="icon">
<path id="Vector" d="M47.0923 87.0747C47.0923 87.0747 43.4098 89.2159 49.7136 89.9434C57.3523 90.8134 61.2598 90.6897 69.6786 89.0959C69.6786 89.0959 71.8911 90.4834 74.9849 91.6872C56.1111 99.7759 32.2723 91.2184 47.0961 87.0747H47.0923ZM44.7861 76.5184C44.7861 76.5184 40.6536 79.5784 46.9648 80.2309C55.1248 81.0709 61.5711 81.1422 72.7236 78.9934C72.7236 78.9934 74.2649 80.5572 76.6911 81.4122C53.8724 88.0834 28.4548 81.9372 44.7861 76.5184ZM64.2299 58.6122C68.8799 63.9672 63.0073 68.7859 63.0073 68.7859C63.0073 68.7859 74.8161 62.6922 69.3936 55.0572C64.3273 47.9397 60.4461 44.4034 81.4723 32.2084C81.4723 32.2084 48.4686 40.4509 64.2299 58.6159V58.6122ZM89.1899 94.8822C89.1899 94.8822 91.9161 97.1284 86.1861 98.8647C75.2923 102.165 40.8448 103.162 31.2748 98.9959C27.8361 97.4997 34.2861 95.4222 36.3148 94.9872C38.4298 94.5297 39.6411 94.6122 39.6411 94.6122C35.8161 91.9159 14.9136 99.9034 29.0248 102.191C67.5073 108.431 99.1724 99.3822 89.1899 94.8784V94.8822ZM48.8623 65.5834C48.8623 65.5834 31.3386 69.7459 42.6561 71.2572C47.4336 71.8984 56.9586 71.7522 65.8348 71.0097C73.0873 70.3984 80.3698 69.0972 80.3698 69.0972C80.3698 69.0972 77.8123 70.1922 75.9636 71.4559C58.1699 76.1359 23.7973 73.9572 33.6936 69.1722C42.0636 65.1259 48.8661 65.5872 48.8661 65.5872L48.8623 65.5834ZM80.2986 83.1522C98.3886 73.7547 90.0223 64.7209 84.1873 65.9359C82.7548 66.2322 82.1173 66.4909 82.1173 66.4909C82.1173 66.4909 82.6498 65.6584 83.6623 65.2984C95.2086 61.2372 104.092 77.2722 79.9348 83.6247C79.9348 83.6247 80.2161 83.3734 80.2986 83.1522V83.1522ZM69.3898 12.5134C69.3898 12.5134 79.4061 22.5334 59.8873 37.9422C44.2348 50.3022 56.3173 57.3522 59.8798 65.4034C50.7448 57.1609 44.0398 49.9047 48.5361 43.1509C55.1398 33.2359 73.4286 28.4322 69.3861 12.5134H69.3898ZM50.6398 108.622C68.0023 109.732 94.6648 108.007 95.2948 99.7909C95.2948 99.7909 94.0798 102.907 80.9473 105.378C66.1273 108.168 47.8498 107.842 37.0123 106.053C37.0123 106.053 39.2323 107.891 50.6436 108.622H50.6398Z" fill="black"/>
</g>
</svg>
