<svg width="120" height="120" viewBox="0 0 120 120" fill="none" xmlns="http://www.w3.org/2000/svg">
<path fill-rule="evenodd" clip-rule="evenodd" d="M0 0V120H120V0H0ZM53.334 53.334H64.4434V90.3359C64.4434 101.559 57.9325 106.666 48.4258 106.666C39.8358 106.666 33.6361 100.846 31.1094 95.4395L39.8398 90.0957C41.5265 93.1157 44.0906 95.4395 47.7773 95.4395C51.304 95.4394 53.334 94.0456 53.334 88.6289V53.334ZM88.1992 53.336C95.0426 53.336 99.9589 55.7056 103.506 61.9122L95.127 67.2696C93.2837 63.9763 91.2892 62.6797 88.1992 62.6797C85.0459 62.6797 83.0488 64.6696 83.0488 67.2696C83.0488 70.4829 85.0493 71.7835 89.666 73.7735L92.3555 74.92C101.506 78.8167 106.666 82.7956 106.666 91.7422C106.666 101.382 99.054 106.666 88.834 106.666C78.8373 106.666 73.16 101.649 70 95.4395L78.459 89.8223C80.7657 93.569 83.274 97.1602 88.584 97.1602C93.044 97.1602 95.3828 94.9436 95.3828 91.877C95.3828 88.207 92.9633 86.9023 88.0566 84.7657L85.3672 83.6192C77.6039 80.3259 72.4395 76.1992 72.4395 67.4825C72.4395 59.4492 78.5892 53.336 88.1992 53.336Z" fill="black"/>
</svg>
