<svg width="120" height="120" viewBox="0 0 120 120" fill="none" xmlns="http://www.w3.org/2000/svg">
<g id="icon">
<path id="Vector" d="M59.3062 96.7517C58.9125 96.7517 58.5188 96.6392 58.1625 96.4517L54.5625 94.3142C54.0187 94.0142 54.2812 93.9017 54.4688 93.8454C55.1812 93.6017 55.3313 93.5454 56.1 93.0954C56.175 93.0579 56.2875 93.0767 56.3625 93.1142L59.1375 94.7642C59.2312 94.8204 59.3813 94.8204 59.475 94.7642L70.3125 88.5017C70.4062 88.4454 70.4812 88.3329 70.4812 88.2017V75.6954C70.4812 75.5642 70.425 75.4517 70.3125 75.3954L59.475 69.1517C59.3813 69.0954 59.25 69.0954 59.1375 69.1517L48.3 75.3954C48.1875 75.4517 48.1313 75.5829 48.1313 75.6954V88.2017C48.1313 88.3142 48.2063 88.4267 48.3 88.4829L51.2625 90.1892C52.875 90.9954 53.8687 90.0392 53.8687 89.1017V76.7454C53.8687 76.5767 54 76.4267 54.1875 76.4267H55.5562C55.725 76.4267 55.875 76.5579 55.875 76.7454V89.1017C55.875 91.2579 54.7125 92.4767 52.6687 92.4767C52.05 92.4767 51.5438 92.4767 50.175 91.8017L47.325 90.1704C46.6312 89.7579 46.1813 89.0079 46.1813 88.2017V75.6954C46.1813 74.8892 46.6125 74.1204 47.325 73.7267L58.1625 67.4642C58.8563 67.0704 59.7562 67.0704 60.4312 67.4642L71.2688 73.7267C71.9625 74.1392 72.4125 74.8892 72.4125 75.6954V88.2017C72.4125 89.0079 71.9813 89.7767 71.2688 90.1704L60.4312 96.4329C60.1125 96.6392 59.7187 96.7517 59.3062 96.7517V96.7517ZM68.0625 84.4142C68.0625 82.0704 66.4875 81.4517 63.15 81.0017C59.775 80.5517 59.4375 80.3267 59.4375 79.5392C59.4375 78.8829 59.7187 78.0204 62.2125 78.0204C64.4437 78.0204 65.2687 78.5079 65.6062 80.0079C65.6437 80.1579 65.7562 80.2517 65.9062 80.2517H67.3125C67.4062 80.2517 67.4813 80.2142 67.5375 80.1579C67.5938 80.0829 67.6313 80.0079 67.6125 79.9142C67.3875 77.3267 65.6812 76.1267 62.2125 76.1267C59.1187 76.1267 57.2812 77.4392 57.2812 79.6142C57.2812 81.9954 59.1188 82.6329 62.0813 82.9329C65.625 83.2892 65.9062 83.7954 65.9062 84.4892C65.9062 85.7079 64.9313 86.2142 62.6438 86.2142C59.775 86.2142 59.1375 85.5017 58.9312 84.0767C58.9125 83.9267 58.7813 83.8142 58.6125 83.8142H57.2063C57.0375 83.8142 56.8875 83.9454 56.8875 84.1329C56.8875 85.9517 57.8813 88.1267 62.625 88.1267C66.0938 88.1267 68.0625 86.7767 68.0625 84.4142V84.4142ZM78.2812 75.0204C78.2812 76.1642 77.3437 77.1017 76.2 77.1017C75.0562 77.1017 74.1187 76.1642 74.1187 75.0204C74.1187 73.8392 75.0937 72.9392 76.2 72.9392C77.325 72.9204 78.2812 73.8392 78.2812 75.0204ZM77.9438 75.0204C77.9438 74.0454 77.1562 73.2767 76.1812 73.2767C75.225 73.2767 74.4375 74.0454 74.4375 75.0204C74.4375 75.9954 75.225 76.7829 76.1812 76.7829C77.1562 76.7642 77.9438 75.9767 77.9438 75.0204ZM77.1 76.1829H76.6125C76.5938 76.0704 76.5188 75.4704 76.5188 75.4517C76.4813 75.3204 76.4437 75.2454 76.275 75.2454H75.8625V76.1829H75.4125V73.8392H76.2188C76.5 73.8392 77.0437 73.8392 77.0437 74.4579C77.0437 74.8892 76.7625 74.9829 76.5938 75.0392C76.9125 75.0579 76.9313 75.2642 76.9875 75.5642C77.0063 75.7517 77.0438 76.0704 77.1 76.1829V76.1829ZM76.575 74.5329C76.575 74.2142 76.35 74.2142 76.2375 74.2142H75.8625V74.8704H76.2188C76.5188 74.8704 76.575 74.6642 76.575 74.5329V74.5329ZM25.7438 47.8142C25.7438 47.3079 25.4813 46.8579 25.05 46.6142L13.5563 39.9954C13.3688 39.8829 13.1438 39.8267 12.9188 39.8079H12.8063C12.5813 39.8079 12.375 39.8829 12.1688 39.9954L0.69375 46.6142C0.2625 46.8579 0 47.3267 0 47.8142L0.01875 65.6267C0.01875 65.8704 0.15 66.0954 0.35625 66.2267C0.5625 66.3579 0.825 66.3579 1.05 66.2267L7.875 62.3079C8.30625 62.0454 8.56875 61.5954 8.56875 61.1079V52.7829C8.56875 52.2954 8.83125 51.8267 9.2625 51.5829L12.1688 49.9142C12.3938 49.7829 12.6187 49.7267 12.8625 49.7267C13.1062 49.7267 13.35 49.7829 13.5563 49.9142L16.4625 51.5829C16.8938 51.8267 17.1562 52.2954 17.1562 52.7829V61.1079C17.1562 61.5954 17.4187 62.0642 17.85 62.3079L24.675 66.2267C24.8813 66.3579 25.1625 66.3579 25.3688 66.2267C25.575 66.1142 25.7063 65.8704 25.7063 65.6267L25.7438 47.8142ZM88.5938 28.3704V61.4454C88.5938 61.9329 88.3312 62.4017 87.9 62.6454L76.4062 69.2829C75.975 69.5267 75.45 69.5267 75.0188 69.2829L63.525 62.6454C63.0937 62.4017 62.8313 61.9329 62.8313 61.4454V48.1704C62.8313 47.6829 63.0937 47.2142 63.525 46.9704L75.0188 40.3329C75.45 40.0892 75.975 40.0892 76.4062 40.3329L79.275 41.9829C79.5937 42.1704 80.0063 41.9267 80.0063 41.5704V23.9454C80.0063 23.4204 80.5688 23.0829 81.0375 23.3454L87.8813 27.1704C88.3125 27.3954 88.5938 27.8642 88.5938 28.3704V28.3704ZM79.9688 52.5392C79.9688 52.4079 79.8938 52.2954 79.8 52.2392L75.8625 49.9517C75.75 49.8954 75.6188 49.8954 75.5063 49.9517L71.5688 52.2392C71.4563 52.2954 71.4 52.4079 71.4 52.5392V57.0954C71.4 57.2267 71.475 57.3392 71.5688 57.3954L75.5063 59.6642C75.6188 59.7204 75.75 59.7204 75.8438 59.6642L79.7812 57.3954C79.8938 57.3392 79.95 57.2267 79.95 57.0954V52.5392H79.9688ZM119.306 52.4079C119.737 52.1642 120 51.6954 120 51.2079V48.0017C120 47.5142 119.737 47.0454 119.306 46.8017L107.888 40.1642C107.456 39.9204 106.931 39.9204 106.5 40.1642L95.0063 46.8017C94.575 47.0454 94.3125 47.5142 94.3125 48.0017V61.2767C94.3125 61.7829 94.575 62.2329 95.0063 62.4767L106.425 68.9829C106.837 69.2267 107.363 69.2267 107.794 68.9829L114.694 65.1392C115.163 64.8767 115.163 64.2017 114.694 63.9392L103.125 57.3017C102.9 57.1704 102.769 56.9454 102.769 56.7017V52.5392C102.769 52.2954 102.9 52.0704 103.125 51.9392L106.725 49.8579C106.931 49.7267 107.213 49.7267 107.419 49.8579L111.019 51.9392C111.225 52.0704 111.375 52.2954 111.375 52.5392V55.8017C111.375 56.3267 111.956 56.6642 112.425 56.4017L119.306 52.4079V52.4079ZM104.812 53.0642C104.737 53.1204 104.681 53.1954 104.681 53.2892V55.8392C104.681 55.9329 104.737 56.0267 104.812 56.0642L107.025 57.3392C107.1 57.3954 107.213 57.3954 107.288 57.3392L109.5 56.0642C109.575 56.0079 109.631 55.9329 109.631 55.8392V53.2892C109.631 53.1954 109.575 53.1017 109.5 53.0642L107.288 51.7892C107.213 51.7329 107.1 51.7329 107.025 51.7892L104.812 53.0642ZM57.15 61.2204V48.0204C57.15 47.5329 56.85 47.0642 56.4187 46.8204L44.9625 40.2204C44.5688 39.9954 44.025 39.9579 43.575 40.2204L32.1188 46.8204C31.6875 47.0642 31.3875 47.5142 31.3875 48.0204V61.2204C31.3875 61.7454 31.7437 62.1954 32.1375 62.4204L43.6125 69.0204C44.0625 69.2829 44.5875 69.2642 45 69.0204L56.4375 62.4204C56.775 62.2329 57.0188 61.9142 57.1125 61.5392C57.1313 61.4454 57.15 61.3329 57.15 61.2204ZM43.2188 37.8017L43.0687 37.8954H43.275L43.2188 37.8017V37.8017ZM57.5063 62.2142L57.4312 62.0829V62.2517L57.5063 62.2142Z" fill="black"/>
</g>
</svg>
