<svg width="120" height="120" viewBox="0 0 120 120" fill="none" xmlns="http://www.w3.org/2000/svg">
<g id="icon">
<path id="Vector" d="M120 60.012C120 52.1269 110.045 44.6543 94.7823 40.0203C98.3045 24.5898 96.7391 12.3133 89.8414 8.38292C88.2515 7.46098 86.3925 7.02427 84.3623 7.02427V12.4347C85.4875 12.4347 86.3925 12.653 87.1508 13.0655C90.4774 14.9578 91.9205 22.1636 90.7953 31.4317C90.5262 33.7122 90.086 36.1142 89.5478 38.5646C84.7537 37.4 79.5192 36.5024 74.0158 35.9201C70.7137 31.4317 67.2893 27.3557 63.8404 23.7892C71.8144 16.4379 79.2992 12.4104 84.3868 12.4104V7C77.6603 7 68.8548 11.7554 59.9513 20.0044C51.0479 11.8039 42.2423 7.09705 35.5158 7.09705V12.5074C40.579 12.5074 48.0882 16.5107 56.0622 23.8135C52.6378 27.3799 49.2134 31.4317 45.9602 35.9201C40.4323 36.5024 35.1978 37.4 30.4037 38.5889C29.8412 36.1627 29.4253 33.8093 29.1318 31.5529C27.9822 22.2849 29.4008 15.0792 32.703 13.1625C33.4367 12.7258 34.3907 12.5317 35.5158 12.5317V7.12131C33.4612 7.12131 31.6023 7.55802 29.9879 8.47998C23.1147 12.4104 21.5736 24.6626 25.1204 40.0446C9.90629 44.7028 0 52.1512 0 60.012C0 67.8971 9.95515 75.3698 25.2182 80.0037C21.696 95.4343 23.2614 107.711 30.1591 111.641C31.749 112.563 33.6079 113 35.6626 113C42.3891 113 51.1946 108.245 60.0981 99.9955C69.0015 108.196 77.8071 112.902 84.5336 112.902C86.5882 112.902 88.4471 112.466 90.0616 111.545C96.9347 107.613 98.4758 95.3615 94.929 79.9795C110.094 75.3455 120 67.8729 120 60.012ZM88.1536 43.8294C87.2486 46.9592 86.1235 50.186 84.8516 53.4129C83.8487 51.4719 82.7969 49.5309 81.6473 47.59C80.5221 45.649 79.3236 43.7567 78.1251 41.9127C81.5984 42.4222 84.9494 43.053 88.1536 43.8294ZM76.951 69.6682C75.0431 72.9435 73.0863 76.0491 71.0561 78.9363C67.4116 79.2517 63.7182 79.4214 60.0003 79.4214C56.3068 79.4214 52.6133 79.2517 48.9933 78.9605C46.9631 76.0733 44.9818 72.9921 43.074 69.741C41.215 66.5628 39.5273 63.3359 37.9863 60.0848C39.5028 56.8337 41.215 53.5826 43.0495 50.4043C44.9574 47.129 46.9141 44.0235 48.9443 41.1364C52.5889 40.821 56.2824 40.6511 60.0003 40.6511C63.6937 40.6511 67.3871 40.821 71.0072 41.1121C73.0373 43.9993 75.0186 47.0805 76.9266 50.3316C78.7855 53.5099 80.4732 56.7367 82.0142 59.9878C80.4732 63.2388 78.7855 66.4899 76.951 69.6682ZM84.8516 66.5142C86.1723 69.7652 87.2976 73.0163 88.227 76.1704C85.0228 76.9468 81.6473 77.6018 78.1495 78.1113C79.348 76.2432 80.5466 74.3265 81.6718 72.3613C82.7969 70.4204 83.8487 68.4551 84.8516 66.5142ZM60.0491 92.4016C57.7744 90.0724 55.4996 87.4764 53.2493 84.6377C55.4507 84.7348 57.701 84.8076 59.9757 84.8076C62.275 84.8076 64.5498 84.7591 66.7756 84.6377C64.5743 87.4764 62.2995 90.0724 60.0491 92.4016ZM41.8509 78.1113C38.3777 77.6018 35.0266 76.971 31.8224 76.1946C32.7274 73.0649 33.8525 69.8381 35.1244 66.6113C36.1273 68.5522 37.1791 70.4931 38.3287 72.4341C39.4783 74.375 40.6524 76.2675 41.8509 78.1113ZM59.9269 27.6226C62.2017 29.9517 64.4764 32.5476 66.7268 35.3863C64.5253 35.2893 62.275 35.2165 60.0003 35.2165C57.701 35.2165 55.4262 35.265 53.2004 35.3863C55.4018 32.5476 57.6765 29.9517 59.9269 27.6226ZM41.8265 41.9127C40.628 43.7809 39.4294 45.6975 38.3043 47.6628C37.1791 49.6038 36.1273 51.5446 35.1244 53.4856C33.8037 50.2345 32.6785 46.9835 31.749 43.8294C34.9532 43.0773 38.3287 42.4222 41.8265 41.9127ZM19.6902 72.2885C11.0314 68.625 5.43011 63.8211 5.43011 60.012C5.43011 56.2029 11.0314 51.3749 19.6902 47.7355C21.7938 46.8379 24.093 46.0373 26.4657 45.2851C27.8599 50.0404 29.6944 54.9898 31.9692 60.0605C29.7188 65.1071 27.9088 70.0321 26.539 74.7632C24.1175 74.0111 21.8182 73.1862 19.6902 72.2885ZM32.8497 106.958C29.5232 105.066 28.08 97.8604 29.2052 88.5925C29.4742 86.3118 29.9145 83.9099 30.4526 81.4594C35.2468 82.624 40.4812 83.5217 45.9847 84.104C49.2867 88.5925 52.7112 92.6685 56.16 96.2349C48.186 103.587 40.7014 107.613 35.6137 107.613C34.513 107.589 33.5835 107.371 32.8497 106.958ZM90.8687 88.4711C92.0183 97.7391 90.5996 104.944 87.2975 106.862C86.5637 107.298 85.6098 107.492 84.4846 107.492C79.4214 107.492 71.9122 103.489 63.9383 96.1864C67.3627 92.6199 70.7871 88.5682 74.0402 84.0797C79.5682 83.4974 84.8026 82.5997 89.5968 81.4109C90.1594 83.8614 90.5996 86.2148 90.8687 88.4711ZM100.286 72.2885C98.1822 73.1862 95.883 73.9868 93.5104 74.7389C92.1161 69.9836 90.2816 65.0342 88.0069 59.9635C90.2572 54.9171 92.0672 49.9919 93.437 45.2609C95.8585 46.0129 98.1578 46.8379 100.31 47.7355C108.969 51.3991 114.57 56.2029 114.57 60.012C114.546 63.8211 108.944 68.6493 100.286 72.2885Z" fill="black"/>
<path id="Vector 2" d="M60.5 71C66.8512 71 72 65.8512 72 59.4999C72 53.1488 66.8512 48 60.5 48C54.1486 48 49 53.1488 49 59.4999C49 65.8512 54.1486 71 60.5 71Z" fill="black"/>
</g>
</svg>
