<svg width="120" height="90" viewBox="0 0 120 90" fill="none" xmlns="http://www.w3.org/2000/svg">
<path id="icon" d="M119.824 63.7599C119.407 60.2564 117.612 57.5374 114.903 55.4068C111.766 52.9416 108.092 51.9263 104.178 51.7648C100.987 51.634 97.8642 52.1109 94.8528 53.2108C93.9957 53.5223 93.1539 53.8915 92.2891 54.2415C92.1744 54.03 92.0519 53.83 91.9524 53.6185C91.0647 51.7956 89.9933 50.0534 89.7599 47.9651C89.5915 46.4806 89.3849 44.9962 89.7369 43.5309C90.0737 42.1195 90.5175 40.7311 90.9308 39.3351C91.1451 38.6159 90.9958 38.216 90.3147 37.8929C90.0775 37.7814 89.8211 37.6814 89.5609 37.6429C87.885 37.4006 86.2358 37.5391 84.6134 38.0121C84.0394 38.1813 83.6223 38.5044 83.4961 39.1428C83.4234 39.5082 83.2741 39.8581 83.1746 40.2196C82.7499 41.7234 82.4515 43.254 81.7665 44.6846C80.0485 48.2766 78.0932 51.7302 76.0843 55.1607C75.8662 55.5299 75.6404 55.8952 75.3649 56.3452C74.6609 54.8645 73.9109 53.5377 73.6813 51.9763C73.425 50.2149 73.2222 48.4574 73.6584 46.7075C73.9836 45.4038 74.4083 44.1231 74.7986 42.8386C74.9861 42.2272 74.8981 41.908 74.3471 41.5849C74.0678 41.4234 73.754 41.2772 73.4403 41.2311C71.7031 40.9734 69.9927 41.108 68.3205 41.6541C67.8001 41.8233 67.5285 42.1618 67.3677 42.7002C66.9009 44.2885 66.503 45.9153 65.8487 47.4267C63.1931 53.5416 60.4649 59.6257 57.7367 65.7059C57.1665 66.975 56.5007 68.2019 55.8579 69.4364C55.6934 69.7517 55.46 70.0248 55.2572 70.3209C55.0926 70.1286 55.0314 69.994 55.0314 69.8633C55.0352 69.0826 54.9434 68.2749 55.0926 67.5211C55.5403 65.2367 56.0569 62.96 56.6041 60.6948C57.0518 58.8257 57.576 56.9721 58.0772 55.1107C58.2456 54.4877 58.2494 53.9069 57.8017 53.3839C57.0556 52.507 55.4944 52.3148 54.5684 52.9916C54.4689 53.0647 54.3503 53.1147 54.159 53.2262C54.1934 52.9301 54.2126 52.7455 54.2393 52.5609C54.4345 51.1379 54.4728 49.7227 54.0863 48.3189C53.6003 46.5729 52.3644 45.5692 50.5622 45.623C49.7204 45.6499 48.8403 45.7922 48.0635 46.0999C44.7919 47.3883 42.278 49.6688 40.139 52.4148C39.9439 52.6647 39.6875 52.8916 39.4158 53.0416C36.6493 54.5838 33.8714 56.1067 31.0972 57.6374C30.0603 58.2066 29.0233 58.7796 28.0093 59.3372C27.1828 58.5411 26.429 57.7181 25.5719 57.0182C22.9623 54.8799 20.3106 52.7955 17.6857 50.6803C15.3592 48.8074 13.1016 46.8537 11.3759 44.3731C10.0902 42.5271 9.26374 40.5081 9.18721 38.2237C9.08772 35.3162 9.90657 32.6587 11.3797 30.182C13.2662 27.0169 15.8337 24.4787 18.6614 22.175C21.6498 19.7406 24.8831 17.6754 28.2351 15.791C32.9224 13.1527 37.7475 10.8183 42.917 9.27613C48.2204 7.6955 53.5965 6.79173 59.1448 7.42244C61.3259 7.66858 63.4419 8.17238 65.3895 9.24536C66.878 10.0645 68.0986 11.1375 68.6687 12.8181C69.2274 14.4718 69.2121 16.1448 68.8218 17.8216C68.0335 21.2174 66.1816 24.021 63.8513 26.5247C60.0325 30.6282 55.372 33.4202 50.1221 35.2662C47.0954 36.3315 43.9807 37.0007 40.7819 37.2699C38.1723 37.4891 35.6162 37.2584 33.1444 36.343C31.5066 35.7393 30.0832 34.8124 28.9353 33.4702C28.7287 33.2279 28.4685 32.9703 28.0858 33.1933C27.7109 33.4125 27.6458 33.774 27.7721 34.1355C27.9825 34.7393 28.1738 35.3624 28.5029 35.9008C29.3218 37.2507 30.5194 38.2313 31.8357 39.0736C34.365 40.6888 37.1889 41.2311 40.1199 41.358C44.5662 41.5503 48.9053 40.885 53.1794 39.6851C59.2864 37.9737 64.5936 34.9509 68.8524 30.182C72.3995 26.2131 74.9287 21.7289 75.4721 16.3178C75.7361 13.6758 75.4568 11.0875 74.2247 8.68003C72.8893 6.06871 70.7694 4.26887 68.2325 2.93436C64.5439 0.988377 60.5567 0.223058 56.4434 0C55.0697 0 53.696 0 52.3223 0C47.3365 0.242287 42.5191 1.29604 37.8355 3.00744C34.2923 4.30348 30.8141 5.76489 27.4392 7.45706C20.0886 11.149 13.2432 15.5641 7.62221 21.6828C4.82128 24.7325 2.4489 28.0784 1.0867 32.0396C0.688754 33.201 0.443863 34.4317 0.156883 35.6316C0.133924 35.7316 0.24489 35.8277 0 35.9277C0 36.493 0 37.0545 0 37.6199C0.24489 38.0544 0.271675 38.4852 0.382641 38.9197C1.10583 41.7387 2.5943 44.1616 4.43863 46.3691C7.06738 49.515 10.2471 52.0456 13.5455 54.43C16.4038 56.4952 19.3042 58.5142 22.174 60.5641C22.6676 60.914 23.123 61.3217 23.6587 61.7524C23.1995 62.0024 22.813 62.2216 22.4151 62.4254C18.627 64.356 14.9842 66.5212 11.6246 69.1441C9.60046 70.7247 7.64134 72.4053 6.26 74.5975C4.03686 78.1279 3.24862 81.8892 4.90546 85.9042C5.39141 87.0772 6.12991 88.0925 7.17069 88.8386C7.50741 89.0808 7.88623 89.3231 8.28035 89.4154C9.29052 89.6539 10.3237 89.8116 11.3491 90C12.3172 90 13.2815 90 14.2495 90C17.4599 89.7116 20.3795 88.6078 23.0158 86.7772C27.1407 83.9159 29.9187 80.0816 31.1164 75.1551C31.9849 71.5785 32.0194 67.9942 30.9977 64.433C30.9021 64.1022 30.7835 63.7792 30.6572 63.46C30.5309 63.1408 30.3855 62.8292 30.2133 62.4293C32.402 61.164 34.5984 59.8949 36.7909 58.6258C36.8254 58.6527 36.856 58.6834 36.8904 58.7104C36.7718 59.1026 36.6455 59.4949 36.5345 59.8949C35.754 62.7639 35.2336 65.6828 35.4211 68.6595C35.62 71.8323 36.5001 74.8013 38.3483 77.4549C39.8406 79.6009 43.403 79.6778 44.9909 77.528C45.5534 76.7627 46.1006 75.9666 46.51 75.1128C47.5814 72.8861 48.5763 70.6209 49.5979 68.3711C49.6438 68.2749 49.6821 68.1788 49.7777 67.9596C49.705 69.0249 49.617 69.9594 49.5788 70.8978C49.5176 72.3592 49.6017 73.8129 50.0992 75.2051C50.5239 76.3973 51.2471 77.2857 52.6055 77.4395C53.5315 77.5472 54.2738 77.1203 54.9549 76.5781C56.0224 75.732 56.8872 74.6898 57.5301 73.5014C59.3476 70.144 61.2149 66.8097 62.8641 63.3677C64.6472 59.6449 66.2045 55.8145 67.8614 52.0302C67.9532 51.8225 68.0335 51.611 68.1369 51.3572C68.5271 52.9032 68.8027 54.4146 69.3039 55.8491C69.8855 57.5105 70.6087 59.1334 71.397 60.7102C71.7681 61.4563 71.726 61.9409 71.2095 62.5639C69.0514 65.179 66.9315 67.825 64.8079 70.4709C64.3372 71.0555 63.8704 71.6477 63.4801 72.2861C63.2429 72.6746 63.086 73.1437 63.0209 73.5976C62.8947 74.4629 63.4227 75.2936 64.3449 75.4935C65.1829 75.6743 66.0783 75.7435 66.9354 75.6781C69.897 75.4589 72.587 74.4129 74.967 72.6438C78.0473 70.3478 79.0383 67.2212 78.2921 63.51C78.0893 62.5023 77.7335 61.5217 77.3853 60.5525C77.2284 60.1141 77.2207 59.8064 77.5039 59.3988C79.9681 55.8645 82.0726 52.1109 84.0279 48.2766C84.1045 48.1267 84.1848 47.9728 84.3187 47.8113C84.9539 51.1302 85.9067 54.3261 87.6171 57.2259C86.7447 58.072 85.8799 58.8373 85.0993 59.6834C83.3774 61.5409 81.8851 63.5638 81.1084 66.0251C80.7755 67.0866 80.5153 68.1634 80.6645 69.3018C80.8979 71.0632 82.3328 72.2054 84.0547 71.8054C87.7395 70.9478 90.9231 69.2018 93.2496 66.1097C94.8146 64.0291 94.9562 61.7063 94.3018 59.2719C94.122 58.6104 93.9077 57.9604 93.6781 57.199C94.5888 56.9144 95.4765 56.5759 96.3911 56.3644C101.155 55.2722 105.865 55.4645 110.453 57.1913C113.132 58.1989 115.297 59.891 116.579 62.5485C118.148 65.7982 117.279 68.8787 114.234 70.9324C113.95 71.1247 113.625 71.2747 113.388 71.5131C113.243 71.6593 113.158 71.9554 113.193 72.1554C113.212 72.2746 113.526 72.4207 113.702 72.4207C114.704 72.413 115.515 71.8862 116.296 71.3439C118.251 69.9863 119.541 68.1557 119.847 65.7521C119.855 65.6828 119.755 65.6175 120 65.5521C120 65.0175 120 64.4868 120 63.9522C119.755 63.8869 119.858 63.8215 119.851 63.7522L119.824 63.7599ZM26.6318 70.2594C26.3142 74.5475 24.3819 78.0241 21.2213 80.8354C19.442 82.4199 17.4063 83.5467 15.0301 83.9428C14.1692 84.0851 13.2891 84.1197 12.4511 83.7621C11.2611 83.2506 10.9933 82.1891 10.9703 81.0546C10.9359 79.2509 11.5634 77.6203 12.4243 76.0704C13.5493 74.0475 15.1985 72.5053 16.9586 71.067C19.7328 68.798 22.7442 66.875 25.8244 65.0637C25.8742 65.0329 25.9354 65.0175 26.0578 64.9675C26.5323 66.7366 26.7619 68.4826 26.628 70.2632L26.6318 70.2594ZM50.6999 51.6264C50.4742 52.9955 50.1948 54.3646 49.7969 55.6914C48.4194 60.2833 46.6554 64.7368 44.746 69.1249C44.394 69.9363 43.8813 70.6786 43.4336 71.4477C43.3647 71.567 43.2614 71.6708 43.1619 71.7708C42.6109 72.3207 42.0828 72.29 41.8035 71.5708C41.4783 70.7363 41.2793 69.844 41.1071 68.9595C40.9923 68.3672 41.0191 67.7442 40.9847 67.1366C41.0229 62.8177 42.3316 58.8873 44.5585 55.2337C45.4769 53.7262 46.4756 52.2917 47.9985 51.3341C48.4691 51.0418 48.9933 50.8072 49.5252 50.6534C50.3364 50.4226 50.8377 50.8033 50.7037 51.6225L50.6999 51.6264ZM67.119 72.6515C69.0858 70.344 71.0488 68.0403 73.0194 65.7251C73.2642 68.298 68.9174 73.4322 67.119 72.6515ZM85.9679 67.9942C85.5508 68.2326 85.0955 68.4095 84.6669 68.6288C84.2766 68.8326 84.1465 68.6287 84.1351 68.2903C84.1274 68.0596 84.1619 67.8211 84.2231 67.5981C85.019 64.7714 86.4845 62.3639 88.6694 60.4025C88.7 60.3718 88.7497 60.3602 88.8224 60.3218C89.8594 63.2369 88.6617 66.4443 85.9641 67.9942H85.9679Z" fill="black"/>
</svg>
