<svg width="120" height="120" viewBox="0 0 120 120" fill="none" xmlns="http://www.w3.org/2000/svg">
<g id="icon">
<path id="Vector" d="M41.9558 56.8682L63.7303 98.6687C64.1191 99.2903 63.8858 99.9118 63.2637 99.9118H49.7324C48.877 99.9118 48.4882 99.6787 48.0993 98.9018C43.1223 88.6459 38.0675 78.39 32.8572 67.3571H32.7017C28.0357 77.7684 22.9031 88.7236 17.9261 98.9795C17.5373 99.601 17.1485 99.8341 16.5263 99.8341H3.69493C2.91727 99.8341 2.83951 99.2126 3.22834 98.7464L24.5362 58.189L3.92823 17.1654C3.46163 16.5439 3.92823 16.0777 4.39483 16.0777H17.7706C18.5482 16.0777 18.8593 16.2331 19.1704 16.9324C24.0696 27.1882 29.0467 37.7549 33.7126 48.0885H33.8681C38.3786 37.8326 43.3556 27.1882 48.1771 17.01C48.5659 16.3885 48.7992 16 49.5769 16H62.0972C62.7193 16 62.9526 16.4662 62.5638 17.0877L41.9558 56.8682ZM67.5408 69.5326C67.5408 51.4294 79.5945 37.2887 98.725 37.2887C100.358 37.2887 101.214 37.2887 102.769 37.4441V16.8547C102.769 16.3885 103.158 16.0777 103.546 16.0777H115.834C116.456 16.0777 116.611 16.3108 116.611 16.6993V88.0243C116.611 90.1221 116.611 92.7638 117 95.6385C117 96.1047 116.844 96.2601 116.378 96.4932C109.846 99.601 103.002 101 96.4698 101C79.5946 101.077 67.5408 90.666 67.5408 69.5326ZM102.769 49.6424C101.68 49.1762 100.125 48.8655 98.2584 48.8655C88.4599 48.8655 81.6165 56.402 81.6165 68.9111C81.6165 83.2072 88.6154 88.9567 97.403 88.9567C99.2694 88.9567 101.291 88.7236 102.769 88.102V49.6424Z" fill="black"/>
</g>
</svg>
